# xmcd
# 
# Track frame offsets:
#     150
#     13311
#     26130
#     42666
#     56641
#     75066
#     90454
#     112528
#     128317
#     147069
#     164281
#     177488
# 
# Disc length: 2557
# 
# Revision: 0
# Processed by: cddbd v1.5.2PL0 Copyright (c) Steve Scherf et al.
# Submitted via: fre:ac v1.0.17
# 
DISCID=8a09fb0c
DTITLE=Dianna Corcoran - In America
DYEAR=2016
DGENRE=Country
TTITLE0=01. God Did Good
TTITLE1=02. Thank You For Cheating On Me
TTITLE2=03. Blame Carolina
TTITLE3=04. Therapy
TTITLE4=05. When These Wheels Hit Tennessee
TTITLE5=06. Not Ready To Lose with Gary Burr
TTITLE6=07. Hold On Lover
TTITLE7=08. Feels Like Hollywood
TTITLE8=09. Other Side Of Letting Go
TTITLE9=10. Ghost In The Passenger Side
TTITLE10=11. Sugar
TTITLE11=12. A Better Me (Raw Recording)
EXTD=
EXTT0=
EXTT1=
EXTT2=
EXTT3=
EXTT4=
EXTT5=
EXTT6=
EXTT7=
EXTT8=
EXTT9=
EXTT10=
EXTT11=
PLAYORDER=
